<?xml version="1.0" encoding="UTF-8" standalone="no"?>
<!DOCTYPE svg PUBLIC "-//W3C//DTD SVG 1.1//EN"
 "http://www.w3.org/Graphics/SVG/1.1/DTD/svg11.dtd">
<!-- Generated by graphviz version 5.0.0 (20220707.1540)
 -->
<!-- Title: dependencies Pages: 1 -->
<svg width="803pt" height="174pt"
 viewBox="0.00 0.00 803.00 173.80" xmlns="http://www.w3.org/2000/svg" xmlns:xlink="http://www.w3.org/1999/xlink">
<g id="graph0" class="graph" transform="scale(1 1) rotate(0) translate(4 169.8)">
<title>dependencies</title>
<polygon fill="white" stroke="transparent" points="-4,4 -4,-169.8 799,-169.8 799,4 -4,4"/>
<text text-anchor="middle" x="397.5" y="-8.2" font-family="sans-serif" font-size="14.00">dependencies</text>
<g id="clust1" class="cluster">
<title>cluster_UserModule</title>
<polygon fill="none" stroke="black" stroke-dasharray="1,5" points="8,-32.8 8,-157.8 787,-157.8 787,-32.8 8,-32.8"/>
</g>
<g id="clust7" class="cluster">
<title>cluster_UserModule_imports</title>
<polygon fill="none" stroke="black" points="631,-40.8 631,-92.8 779,-92.8 779,-40.8 631,-40.8"/>
</g>
<g id="clust2" class="cluster">
<title>cluster_UserModule_declarations</title>
<polygon fill="none" stroke="black" points="16,-40.8 16,-92.8 623,-92.8 623,-40.8 16,-40.8"/>
</g>
<!-- UseraddComponent -->
<g id="node1" class="node">
<title>UseraddComponent</title>
<polygon fill="#ffffb3" stroke="black" points="614.98,-84.8 487.02,-84.8 487.02,-48.8 614.98,-48.8 614.98,-84.8"/>
<text text-anchor="middle" x="551" y="-62.6" font-family="Times,serif" font-size="14.00">UseraddComponent</text>
</g>
<!-- UserModule -->
<g id="node5" class="node">
<title>UserModule</title>
<polygon fill="#8dd3c7" stroke="black" points="440.99,-149.8 437.99,-153.8 416.99,-153.8 413.99,-149.8 355.01,-149.8 355.01,-113.8 440.99,-113.8 440.99,-149.8"/>
<text text-anchor="middle" x="398" y="-127.6" font-family="Times,serif" font-size="14.00">UserModule</text>
</g>
<!-- UseraddComponent&#45;&gt;UserModule -->
<g id="edge1" class="edge">
<title>UseraddComponent&#45;&gt;UserModule</title>
<path fill="none" stroke="black" d="M551,-84.82C551,-102.17 551,-125.8 551,-125.8 551,-125.8 451.03,-125.8 451.03,-125.8"/>
<polygon fill="black" stroke="black" points="451.03,-122.3 441.03,-125.8 451.03,-129.3 451.03,-122.3"/>
</g>
<!-- UserdeleteComponent -->
<g id="node2" class="node">
<title>UserdeleteComponent</title>
<polygon fill="#ffffb3" stroke="black" points="468.69,-84.8 327.31,-84.8 327.31,-48.8 468.69,-48.8 468.69,-84.8"/>
<text text-anchor="middle" x="398" y="-62.6" font-family="Times,serif" font-size="14.00">UserdeleteComponent</text>
</g>
<!-- UserdeleteComponent&#45;&gt;UserModule -->
<g id="edge2" class="edge">
<title>UserdeleteComponent&#45;&gt;UserModule</title>
<path fill="none" stroke="black" d="M398,-84.91C398,-84.91 398,-103.79 398,-103.79"/>
<polygon fill="black" stroke="black" points="394.5,-103.79 398,-113.79 401.5,-103.79 394.5,-103.79"/>
</g>
<!-- UsereditComponent -->
<g id="node3" class="node">
<title>UsereditComponent</title>
<polygon fill="#ffffb3" stroke="black" points="309.26,-84.8 180.74,-84.8 180.74,-48.8 309.26,-48.8 309.26,-84.8"/>
<text text-anchor="middle" x="245" y="-62.6" font-family="Times,serif" font-size="14.00">UsereditComponent</text>
</g>
<!-- UsereditComponent&#45;&gt;UserModule -->
<g id="edge3" class="edge">
<title>UsereditComponent&#45;&gt;UserModule</title>
<path fill="none" stroke="black" d="M245,-84.82C245,-102.17 245,-125.8 245,-125.8 245,-125.8 344.97,-125.8 344.97,-125.8"/>
<polygon fill="black" stroke="black" points="344.97,-129.3 354.97,-125.8 344.97,-122.3 344.97,-129.3"/>
</g>
<!-- UserindexComponent -->
<g id="node4" class="node">
<title>UserindexComponent</title>
<polygon fill="#ffffb3" stroke="black" points="162.37,-84.8 23.63,-84.8 23.63,-48.8 162.37,-48.8 162.37,-84.8"/>
<text text-anchor="middle" x="93" y="-62.6" font-family="Times,serif" font-size="14.00">UserindexComponent</text>
</g>
<!-- UserindexComponent&#45;&gt;UserModule -->
<g id="edge4" class="edge">
<title>UserindexComponent&#45;&gt;UserModule</title>
<path fill="none" stroke="black" d="M93,-85.08C93,-106.12 93,-137.8 93,-137.8 93,-137.8 344.95,-137.8 344.95,-137.8"/>
<polygon fill="black" stroke="black" points="344.95,-141.3 354.95,-137.8 344.95,-134.3 344.95,-141.3"/>
</g>
<!-- UserRoutingModule -->
<g id="node6" class="node">
<title>UserRoutingModule</title>
<polygon fill="#8dd3c7" stroke="black" points="770.6,-84.8 767.6,-88.8 746.6,-88.8 743.6,-84.8 639.4,-84.8 639.4,-48.8 770.6,-48.8 770.6,-84.8"/>
<text text-anchor="middle" x="705" y="-62.6" font-family="Times,serif" font-size="14.00">UserRoutingModule</text>
</g>
<!-- UserRoutingModule&#45;&gt;UserModule -->
<g id="edge5" class="edge">
<title>UserRoutingModule&#45;&gt;UserModule</title>
<path fill="none" stroke="black" d="M705,-85.08C705,-106.12 705,-137.8 705,-137.8 705,-137.8 451.01,-137.8 451.01,-137.8"/>
<polygon fill="black" stroke="black" points="451.01,-134.3 441.01,-137.8 451.01,-141.3 451.01,-134.3"/>
</g>
</g>
</svg>
