<?xml version="1.0" encoding="UTF-8" standalone="no"?>
<!DOCTYPE svg PUBLIC "-//W3C//DTD SVG 1.1//EN"
 "http://www.w3.org/Graphics/SVG/1.1/DTD/svg11.dtd">
<!-- Generated by graphviz version 5.0.0 (20220707.1540)
 -->
<!-- Title: dependencies Pages: 1 -->
<svg width="879pt" height="174pt"
 viewBox="0.00 0.00 879.00 173.80" xmlns="http://www.w3.org/2000/svg" xmlns:xlink="http://www.w3.org/1999/xlink">
<g id="graph0" class="graph" transform="scale(1 1) rotate(0) translate(4 169.8)">
<title>dependencies</title>
<polygon fill="white" stroke="transparent" points="-4,4 -4,-169.8 875,-169.8 875,4 -4,4"/>
<text text-anchor="middle" x="435.5" y="-8.2" font-family="sans-serif" font-size="14.00">dependencies</text>
<g id="clust1" class="cluster">
<title>cluster_MoviesModule</title>
<polygon fill="none" stroke="black" stroke-dasharray="1,5" points="8,-32.8 8,-157.8 863,-157.8 863,-32.8 8,-32.8"/>
</g>
<g id="clust7" class="cluster">
<title>cluster_MoviesModule_imports</title>
<polygon fill="none" stroke="black" points="693,-40.8 693,-92.8 855,-92.8 855,-40.8 693,-40.8"/>
</g>
<g id="clust2" class="cluster">
<title>cluster_MoviesModule_declarations</title>
<polygon fill="none" stroke="black" points="16,-40.8 16,-92.8 685,-92.8 685,-40.8 16,-40.8"/>
</g>
<!-- MoviesaddComponent -->
<g id="node1" class="node">
<title>MoviesaddComponent</title>
<polygon fill="#ffffb3" stroke="black" points="676.55,-84.8 533.45,-84.8 533.45,-48.8 676.55,-48.8 676.55,-84.8"/>
<text text-anchor="middle" x="605" y="-62.6" font-family="Times,serif" font-size="14.00">MoviesaddComponent</text>
</g>
<!-- MoviesModule -->
<g id="node5" class="node">
<title>MoviesModule</title>
<polygon fill="#8dd3c7" stroke="black" points="487.55,-149.8 484.55,-153.8 463.55,-153.8 460.55,-149.8 386.45,-149.8 386.45,-113.8 487.55,-113.8 487.55,-149.8"/>
<text text-anchor="middle" x="437" y="-127.6" font-family="Times,serif" font-size="14.00">MoviesModule</text>
</g>
<!-- MoviesaddComponent&#45;&gt;MoviesModule -->
<g id="edge1" class="edge">
<title>MoviesaddComponent&#45;&gt;MoviesModule</title>
<path fill="none" stroke="black" d="M605,-84.82C605,-102.17 605,-125.8 605,-125.8 605,-125.8 497.86,-125.8 497.86,-125.8"/>
<polygon fill="black" stroke="black" points="497.86,-122.3 487.86,-125.8 497.86,-129.3 497.86,-122.3"/>
</g>
<!-- MoviesdeleteComponent -->
<g id="node2" class="node">
<title>MoviesdeleteComponent</title>
<polygon fill="#ffffb3" stroke="black" points="515.25,-84.8 358.75,-84.8 358.75,-48.8 515.25,-48.8 515.25,-84.8"/>
<text text-anchor="middle" x="437" y="-62.6" font-family="Times,serif" font-size="14.00">MoviesdeleteComponent</text>
</g>
<!-- MoviesdeleteComponent&#45;&gt;MoviesModule -->
<g id="edge2" class="edge">
<title>MoviesdeleteComponent&#45;&gt;MoviesModule</title>
<path fill="none" stroke="black" d="M437,-84.91C437,-84.91 437,-103.79 437,-103.79"/>
<polygon fill="black" stroke="black" points="433.5,-103.79 437,-113.79 440.5,-103.79 433.5,-103.79"/>
</g>
<!-- MovieseditComponent -->
<g id="node3" class="node">
<title>MovieseditComponent</title>
<polygon fill="#ffffb3" stroke="black" points="340.32,-84.8 195.68,-84.8 195.68,-48.8 340.32,-48.8 340.32,-84.8"/>
<text text-anchor="middle" x="268" y="-62.6" font-family="Times,serif" font-size="14.00">MovieseditComponent</text>
</g>
<!-- MovieseditComponent&#45;&gt;MoviesModule -->
<g id="edge3" class="edge">
<title>MovieseditComponent&#45;&gt;MoviesModule</title>
<path fill="none" stroke="black" d="M268,-84.82C268,-102.17 268,-125.8 268,-125.8 268,-125.8 376.29,-125.8 376.29,-125.8"/>
<polygon fill="black" stroke="black" points="376.29,-129.3 386.29,-125.8 376.29,-122.3 376.29,-129.3"/>
</g>
<!-- MoviesindexComponent -->
<g id="node4" class="node">
<title>MoviesindexComponent</title>
<polygon fill="#ffffb3" stroke="black" points="178.44,-84.8 23.56,-84.8 23.56,-48.8 178.44,-48.8 178.44,-84.8"/>
<text text-anchor="middle" x="101" y="-62.6" font-family="Times,serif" font-size="14.00">MoviesindexComponent</text>
</g>
<!-- MoviesindexComponent&#45;&gt;MoviesModule -->
<g id="edge4" class="edge">
<title>MoviesindexComponent&#45;&gt;MoviesModule</title>
<path fill="none" stroke="black" d="M101,-85.08C101,-106.12 101,-137.8 101,-137.8 101,-137.8 376.33,-137.8 376.33,-137.8"/>
<polygon fill="black" stroke="black" points="376.33,-141.3 386.33,-137.8 376.33,-134.3 376.33,-141.3"/>
</g>
<!-- MoviesRoutingModule -->
<g id="node6" class="node">
<title>MoviesRoutingModule</title>
<polygon fill="#8dd3c7" stroke="black" points="847.17,-84.8 844.17,-88.8 823.17,-88.8 820.17,-84.8 700.83,-84.8 700.83,-48.8 847.17,-48.8 847.17,-84.8"/>
<text text-anchor="middle" x="774" y="-62.6" font-family="Times,serif" font-size="14.00">MoviesRoutingModule</text>
</g>
<!-- MoviesRoutingModule&#45;&gt;MoviesModule -->
<g id="edge5" class="edge">
<title>MoviesRoutingModule&#45;&gt;MoviesModule</title>
<path fill="none" stroke="black" d="M774,-85.08C774,-106.12 774,-137.8 774,-137.8 774,-137.8 497.82,-137.8 497.82,-137.8"/>
<polygon fill="black" stroke="black" points="497.82,-134.3 487.82,-137.8 497.82,-141.3 497.82,-134.3"/>
</g>
</g>
</svg>
