<?xml version="1.0" encoding="UTF-8" standalone="no"?>
<!DOCTYPE svg PUBLIC "-//W3C//DTD SVG 1.1//EN"
 "http://www.w3.org/Graphics/SVG/1.1/DTD/svg11.dtd">
<!-- Generated by graphviz version 5.0.0 (20220707.1540)
 -->
<!-- Title: dependencies Pages: 1 -->
<svg width="901pt" height="174pt"
 viewBox="0.00 0.00 901.00 173.80" xmlns="http://www.w3.org/2000/svg" xmlns:xlink="http://www.w3.org/1999/xlink">
<g id="graph0" class="graph" transform="scale(1 1) rotate(0) translate(4 169.8)">
<title>dependencies</title>
<polygon fill="white" stroke="transparent" points="-4,4 -4,-169.8 897,-169.8 897,4 -4,4"/>
<text text-anchor="middle" x="446.5" y="-8.2" font-family="sans-serif" font-size="14.00">dependencies</text>
<g id="clust1" class="cluster">
<title>cluster_PublicModule</title>
<polygon fill="none" stroke="black" stroke-dasharray="1,5" points="8,-32.8 8,-157.8 885,-157.8 885,-32.8 8,-32.8"/>
</g>
<g id="clust8" class="cluster">
<title>cluster_PublicModule_imports</title>
<polygon fill="none" stroke="black" points="721,-40.8 721,-92.8 877,-92.8 877,-40.8 721,-40.8"/>
</g>
<g id="clust2" class="cluster">
<title>cluster_PublicModule_declarations</title>
<polygon fill="none" stroke="black" points="16,-40.8 16,-92.8 713,-92.8 713,-40.8 16,-40.8"/>
</g>
<!-- ContactComponent -->
<g id="node1" class="node">
<title>ContactComponent</title>
<polygon fill="#ffffb3" stroke="black" points="705.38,-84.8 580.62,-84.8 580.62,-48.8 705.38,-48.8 705.38,-84.8"/>
<text text-anchor="middle" x="643" y="-62.6" font-family="Times,serif" font-size="14.00">ContactComponent</text>
</g>
<!-- PublicModule -->
<g id="node6" class="node">
<title>PublicModule</title>
<polygon fill="#8dd3c7" stroke="black" points="480.83,-149.8 477.83,-153.8 456.83,-153.8 453.83,-149.8 385.17,-149.8 385.17,-113.8 480.83,-113.8 480.83,-149.8"/>
<text text-anchor="middle" x="433" y="-127.6" font-family="Times,serif" font-size="14.00">PublicModule</text>
</g>
<!-- ContactComponent&#45;&gt;PublicModule -->
<g id="edge1" class="edge">
<title>ContactComponent&#45;&gt;PublicModule</title>
<path fill="none" stroke="black" d="M643,-84.82C643,-102.17 643,-125.8 643,-125.8 643,-125.8 490.92,-125.8 490.92,-125.8"/>
<polygon fill="black" stroke="black" points="490.92,-122.3 480.92,-125.8 490.91,-129.3 490.92,-122.3"/>
</g>
<!-- HeaderComponent -->
<g id="node2" class="node">
<title>HeaderComponent</title>
<polygon fill="#ffffb3" stroke="black" points="562.75,-84.8 441.25,-84.8 441.25,-48.8 562.75,-48.8 562.75,-84.8"/>
<text text-anchor="middle" x="502" y="-62.6" font-family="Times,serif" font-size="14.00">HeaderComponent</text>
</g>
<!-- HeaderComponent&#45;&gt;PublicModule -->
<g id="edge2" class="edge">
<title>HeaderComponent&#45;&gt;PublicModule</title>
<path fill="none" stroke="black" d="M460.9,-84.91C460.9,-84.91 460.9,-103.79 460.9,-103.79"/>
<polygon fill="black" stroke="black" points="457.4,-103.79 460.9,-113.79 464.4,-103.79 457.4,-103.79"/>
</g>
<!-- HomeComponent -->
<g id="node3" class="node">
<title>HomeComponent</title>
<polygon fill="#ffffb3" stroke="black" points="422.55,-84.8 307.45,-84.8 307.45,-48.8 422.55,-48.8 422.55,-84.8"/>
<text text-anchor="middle" x="365" y="-62.6" font-family="Times,serif" font-size="14.00">HomeComponent</text>
</g>
<!-- HomeComponent&#45;&gt;PublicModule -->
<g id="edge3" class="edge">
<title>HomeComponent&#45;&gt;PublicModule</title>
<path fill="none" stroke="black" d="M404.05,-84.91C404.05,-84.91 404.05,-103.79 404.05,-103.79"/>
<polygon fill="black" stroke="black" points="400.55,-103.79 404.05,-113.79 407.55,-103.79 400.55,-103.79"/>
</g>
<!-- MoviesComponent -->
<g id="node4" class="node">
<title>MoviesComponent</title>
<polygon fill="#ffffb3" stroke="black" points="289.83,-84.8 166.17,-84.8 166.17,-48.8 289.83,-48.8 289.83,-84.8"/>
<text text-anchor="middle" x="228" y="-62.6" font-family="Times,serif" font-size="14.00">MoviesComponent</text>
</g>
<!-- MoviesComponent&#45;&gt;PublicModule -->
<g id="edge4" class="edge">
<title>MoviesComponent&#45;&gt;PublicModule</title>
<path fill="none" stroke="black" d="M228,-84.82C228,-102.17 228,-125.8 228,-125.8 228,-125.8 375.2,-125.8 375.2,-125.8"/>
<polygon fill="black" stroke="black" points="375.2,-129.3 385.2,-125.8 375.2,-122.3 375.2,-129.3"/>
</g>
<!-- PlayoutComponent -->
<g id="node5" class="node">
<title>PlayoutComponent</title>
<polygon fill="#ffffb3" stroke="black" points="148.11,-84.8 23.89,-84.8 23.89,-48.8 148.11,-48.8 148.11,-84.8"/>
<text text-anchor="middle" x="86" y="-62.6" font-family="Times,serif" font-size="14.00">PlayoutComponent</text>
</g>
<!-- PlayoutComponent&#45;&gt;PublicModule -->
<g id="edge5" class="edge">
<title>PlayoutComponent&#45;&gt;PublicModule</title>
<path fill="none" stroke="black" d="M86,-85.08C86,-106.12 86,-137.8 86,-137.8 86,-137.8 375.12,-137.8 375.12,-137.8"/>
<polygon fill="black" stroke="black" points="375.12,-141.3 385.12,-137.8 375.12,-134.3 375.12,-141.3"/>
</g>
<!-- PublicRoutingModule -->
<g id="node7" class="node">
<title>PublicRoutingModule</title>
<polygon fill="#8dd3c7" stroke="black" points="869.45,-84.8 866.45,-88.8 845.45,-88.8 842.45,-84.8 728.55,-84.8 728.55,-48.8 869.45,-48.8 869.45,-84.8"/>
<text text-anchor="middle" x="799" y="-62.6" font-family="Times,serif" font-size="14.00">PublicRoutingModule</text>
</g>
<!-- PublicRoutingModule&#45;&gt;PublicModule -->
<g id="edge6" class="edge">
<title>PublicRoutingModule&#45;&gt;PublicModule</title>
<path fill="none" stroke="black" d="M799,-85.08C799,-106.12 799,-137.8 799,-137.8 799,-137.8 490.85,-137.8 490.85,-137.8"/>
<polygon fill="black" stroke="black" points="490.85,-134.3 480.85,-137.8 490.85,-141.3 490.85,-134.3"/>
</g>
</g>
</svg>
